<svg xmlns="http://www.w3.org/2000/svg" version="1.1" xmlns:xlink="http://www.w3.org/1999/xlink" xmlns:svgjs="http://svgjs.com/svgjs" width="1800" height="720" preserveAspectRatio="none" viewBox="0 0 1800 720"><g mask="url(&quot;#SvgjsMask1045&quot;)" fill="none"><rect width="1800" height="720" x="0" y="0" fill="#0e2a47"></rect><path d="M1621.52 171.11 a39.91 39.91 0 1 0 79.82 0 a39.91 39.91 0 1 0 -79.82 0z" stroke="rgba(170, 198, 11, 1)"></path><path d="M1772.41 576.5L1785.44 576.5L1785.44 589.53L1772.41 589.53z" stroke="rgba(210, 155, 7, 1)"></path><path d="M292.95 51.6L352.97 51.6L352.97 111.62L292.95 111.62z" fill="rgba(170, 198, 11, 1)"></path><path d="M1061.6 551.29 a23.06 23.06 0 1 0 46.12 0 a23.06 23.06 0 1 0 -46.12 0z" stroke="rgba(210, 155, 7, 1)"></path><path d="M242.93 64.02 a41.38 41.38 0 1 0 82.76 0 a41.38 41.38 0 1 0 -82.76 0z" stroke="rgba(162, 13, 13, 1)"></path><path d="M1711.2 630.37L1758.99 630.37L1758.99 648.64L1711.2 648.64z" stroke="rgba(162, 13, 13, 1)"></path><path d="M1335.39 520.98 a47.66 47.66 0 1 0 95.32 0 a47.66 47.66 0 1 0 -95.32 0z" stroke="rgba(210, 155, 7, 1)"></path><path d="M723.1 182.24L788.36 182.24L788.36 247.5L723.1 247.5z" fill="rgba(210, 155, 7, 1)"></path><path d="M-6.7 38.43 a22.19 22.19 0 1 0 44.38 0 a22.19 22.19 0 1 0 -44.38 0z" stroke="rgba(210, 155, 7, 1)"></path><path d="M1589.95 398.26 a26.27 26.27 0 1 0 52.54 0 a26.27 26.27 0 1 0 -52.54 0z" fill="rgba(170, 198, 11, 1)"></path><path d="M861.25 16.17 a55.65 55.65 0 1 0 111.3 0 a55.65 55.65 0 1 0 -111.3 0z" stroke="rgba(170, 198, 11, 1)"></path><path d="M1179.36 628.28a47.45 47.45 0 1 0 50.4 80.41z" stroke="rgba(162, 13, 13, 1)"></path><path d="M1377.55 431.83L1442.03 431.83L1442.03 496.31L1377.55 496.31z" stroke="rgba(210, 155, 7, 1)"></path><path d="M1656.29 673.59L1700.83 673.59L1700.83 687.98L1656.29 687.98z" stroke="rgba(162, 13, 13, 1)"></path><path d="M755.86 677.68L827.86 677.68L827.86 749.68L755.86 749.68z" stroke="rgba(210, 155, 7, 1)"></path><path d="M564.08 239.7a26.47 26.47 0 1 0 11.1-51.77z" fill="rgba(210, 155, 7, 1)"></path><path d="M757.84 444.13 a7.88 7.88 0 1 0 15.76 0 a7.88 7.88 0 1 0 -15.76 0z" fill="rgba(162, 13, 13, 1)"></path><path d="M1697.81 266.26a67.8 67.8 0 1 0 87.77-103.36z" stroke="rgba(170, 198, 11, 1)"></path><path d="M1749.54 107.77 a13.32 13.32 0 1 0 26.64 0 a13.32 13.32 0 1 0 -26.64 0z" fill="rgba(210, 155, 7, 1)"></path><path d="M1256.86 263.14L1322.52 263.14L1322.52 265.74L1256.86 265.74z" fill="rgba(210, 155, 7, 1)"></path><path d="M517.41 156.47 a2.82 2.82 0 1 0 5.64 0 a2.82 2.82 0 1 0 -5.64 0z" fill="rgba(210, 155, 7, 1)"></path><path d="M985.3 719.98L1010.71 719.98L1010.71 769.77L985.3 769.77z" stroke="rgba(170, 198, 11, 1)"></path><path d="M837.7 479.87L847.64 479.87L847.64 489.81L837.7 489.81z" fill="rgba(162, 13, 13, 1)"></path><path d="M210.07 405.32L251.62 405.32L251.62 446.87L210.07 446.87z" stroke="rgba(170, 198, 11, 1)"></path><path d="M440.7 235.96L442.14 235.96L442.14 292.61L440.7 292.61z" stroke="rgba(162, 13, 13, 1)"></path><path d="M248.5 249.89 a28.86 28.86 0 1 0 57.72 0 a28.86 28.86 0 1 0 -57.72 0z" fill="rgba(162, 13, 13, 1)"></path><path d="M483.26 588.73L531.64 588.73L531.64 637.11L483.26 637.11z" fill="rgba(210, 155, 7, 1)"></path><path d="M1362.9 20.07 a8.63 8.63 0 1 0 17.26 0 a8.63 8.63 0 1 0 -17.26 0z" fill="rgba(210, 155, 7, 1)"></path><path d="M43.47 435.8 a8.21 8.21 0 1 0 16.42 0 a8.21 8.21 0 1 0 -16.42 0z" stroke="rgba(210, 155, 7, 1)"></path><path d="M299.5 38.75L322.58 38.75L322.58 110.24L299.5 110.24z" fill="rgba(162, 13, 13, 1)"></path><path d="M447.47 395.19L496.27 395.19L496.27 457.83L447.47 457.83z" fill="rgba(170, 198, 11, 1)"></path><path d="M715.63 87.78L771.82 87.78L771.82 143.97L715.63 143.97z" stroke="rgba(170, 198, 11, 1)"></path></g><defs><mask id="SvgjsMask1045"><rect width="1800" height="720" fill="#ffffff"></rect></mask></defs></svg>